<svg width="12" height="12" viewBox="0 0 12 12" fill="none" xmlns="http://www.w3.org/2000/svg">
  <path fill-rule="evenodd" clip-rule="evenodd" d="M6.729 0.895915C6.729 0.493207 6.40254 0.166748 5.99984 0.166748C5.59713 0.166748 5.27067 0.493207 5.27067 0.895915V5.27092H0.895671C0.492963 5.27092 0.166504 5.59737 0.166504 6.00008C0.166504 6.40279 0.492963 6.72925 0.895671 6.72925H5.27067V11.1042C5.27067 11.507 5.59713 11.8334 5.99984 11.8334C6.40254 11.8334 6.729 11.507 6.729 11.1042V6.72925H11.104C11.5067 6.72925 11.8332 6.40279 11.8332 6.00008C11.8332 5.59737 11.5067 5.27092 11.104 5.27092H6.729V0.895915Z" fill="white"/>
</svg>