<svg width="14" height="14" viewBox="0 0 14 14" fill="none" xmlns="http://www.w3.org/2000/svg">
  <path fill-rule="evenodd" clip-rule="evenodd" d="M1.75001 8.16663C2.07217 8.16663 2.33334 8.42779 2.33334 8.74996V11.0833C2.33334 11.238 2.3948 11.3864 2.50419 11.4958C2.61359 11.6052 2.76196 11.6666 2.91667 11.6666H11.0833C11.238 11.6666 11.3864 11.6052 11.4958 11.4958C11.6052 11.3864 11.6667 11.238 11.6667 11.0833V8.74996C11.6667 8.42779 11.9278 8.16663 12.25 8.16663C12.5722 8.16663 12.8333 8.42779 12.8333 8.74996V11.0833C12.8333 11.5474 12.649 11.9925 12.3208 12.3207C11.9926 12.6489 11.5475 12.8333 11.0833 12.8333H2.91667C2.45254 12.8333 2.00742 12.6489 1.67923 12.3207C1.35105 11.9925 1.16667 11.5474 1.16667 11.0833V8.74996C1.16667 8.42779 1.42784 8.16663 1.75001 8.16663Z" fill="#0052CC"/>
  <path fill-rule="evenodd" clip-rule="evenodd" d="M3.67085 5.42085C3.89866 5.19305 4.26801 5.19305 4.49581 5.42085L7 7.92504L9.50419 5.42085C9.73199 5.19305 10.1013 5.19305 10.3291 5.42085C10.557 5.64866 10.557 6.01801 10.3291 6.24581L7.41248 9.16248C7.18467 9.39029 6.81533 9.39029 6.58752 9.16248L3.67085 6.24581C3.44305 6.01801 3.44305 5.64866 3.67085 5.42085Z" fill="#0052CC"/>
  <path fill-rule="evenodd" clip-rule="evenodd" d="M7.00001 1.16663C7.32217 1.16663 7.58334 1.42779 7.58334 1.74996V8.74996C7.58334 9.07213 7.32217 9.33329 7.00001 9.33329C6.67784 9.33329 6.41667 9.07213 6.41667 8.74996V1.74996C6.41667 1.42779 6.67784 1.16663 7.00001 1.16663Z" fill="#0052CC"/>
</svg>