<svg width="16" height="16" viewBox="0 0 16 16" fill="none" xmlns="http://www.w3.org/2000/svg">
  <path fill-rule="evenodd" clip-rule="evenodd" d="M7.33398 2.66671C4.75666 2.66671 2.66732 4.75605 2.66732 7.33337C2.66732 9.9107 4.75666 12 7.33398 12C9.91131 12 12.0007 9.9107 12.0007 7.33337C12.0007 4.75605 9.91131 2.66671 7.33398 2.66671ZM1.33398 7.33337C1.33398 4.01967 4.02028 1.33337 7.33398 1.33337C10.6477 1.33337 13.334 4.01967 13.334 7.33337C13.334 10.6471 10.6477 13.3334 7.33398 13.3334C4.02028 13.3334 1.33398 10.6471 1.33398 7.33337Z" fill="#596A7C" />
  <path fill-rule="evenodd" clip-rule="evenodd" d="M10.6289 10.6286C10.8892 10.3683 11.3113 10.3683 11.5717 10.6286L14.4717 13.5286C14.732 13.789 14.732 14.2111 14.4717 14.4714C14.2113 14.7318 13.7892 14.7318 13.5289 14.4714L10.6289 11.5714C10.3685 11.3111 10.3685 10.889 10.6289 10.6286Z" fill="#596A7C" />
</svg>